<svg xmlns="http://www.w3.org/2000/svg" xmlns:xlink="http://www.w3.org/1999/xlink" width="182" height="182" viewBox="0 0 182 182">
    <defs>
        <path id="prefix__a" d="M0 89.676c0 49.404 40.277 89.681 89.679 89.681 49.401 0 89.678-40.277 89.678-89.68C179.357 40.276 139.08 0 89.68 0 40.277 0 0 40.277 0 89.676zm20.61-40.588h14.948v42.95H143.8V71.428h14.947v58.84H143.8v-14H35.558v14H20.61V49.088zm24.072 23.128c0-6.766 5.507-12.273 12.273-12.273 6.764 0 12.27 5.507 12.27 12.273 0 6.764-5.506 12.27-12.27 12.27-6.766 0-12.273-5.506-12.273-12.27zm33.825-6.293h40.907c7.867 0 14.16 6.293 14.16 14.16v2.675H78.507V65.923z"/>
    </defs>
    <g fill="none" fill-rule="evenodd" transform="translate(1.311 1)">
        <use fill="#FFF" xlink:href="#prefix__a"/>
    </g>
</svg>
