<svg xmlns="http://www.w3.org/2000/svg" width="177" height="178" viewBox="0 0 177 178">
    <path fill="#FFF" fill-rule="evenodd" d="M88.811 1c48.432 0 87.694 39.262 87.694 87.694s-39.262 87.694-87.694 87.694S1.117 137.126 1.117 88.694 40.38 1 88.811 1zm16.554 37.607H72.257c-6.743 0-12.248 5.405-12.411 12.11l-.004.306V73.36l-14.03-7.015v43.5l14.03-7.015v25.648c0 6.743 5.405 12.249 12.11 12.411l.305.004h33.108c6.743 0 12.249-5.405 12.412-12.11l.003-.305V97.862l19.531-9.766-19.53-9.765V51.023c0-6.846-5.57-12.416-12.416-12.416zm7.647 16.57v20.769l-19.2-9.6v43.5l19.2-9.6v23.837H64.61v-23.636l24.701-12.351-24.7-12.35V55.177h48.401z"/>
</svg>
