<svg xmlns="http://www.w3.org/2000/svg" width="174" height="182" viewBox="0 0 174 182">
    <g fill="#FFF" fill-rule="evenodd">
        <path d="M126.747 59.044L95.008 59.044 95.008 86.246 128.363 86.246z" transform="translate(1.117 .25)"/>
        <path d="M82.663 0C49.197 0 20.037 18.453 4.632 45.782h103.956v-6.285c0-2.951 2.373-5.358 5.307-5.358 1.468 0 2.79.601 3.768 1.569.962.965 1.56 2.314 1.56 3.79v6.284h5.814v13.262h-3.86l1.268 27.201h5.995v38.913h-14.796c.16.983.251 1.987.251 3.024 0 9.967-8.024 18.038-17.932 18.038-9.907 0-17.932-8.07-17.932-18.038 0-1.037.091-2.04.254-3.024H0c13.583 32.434 45.478 55.203 82.663 55.203 49.518 0 89.66-40.376 89.66-90.18C172.323 40.372 132.181 0 82.663 0" transform="translate(1.117 .25)"/>
        <path d="M71.742 75.469L71.742 92.047 53.178 92.047 53.178 110.612 36.617 110.612 36.617 92.047 18.053 92.047 18.053 75.469 36.617 75.469 36.617 56.904 53.178 56.904 53.178 75.469z" transform="translate(1.117 .25)"/>
    </g>
</svg>
