<svg xmlns="http://www.w3.org/2000/svg" width="177" height="177" viewBox="0 0 177 177">
    <path fill="#FFF" fill-rule="evenodd" d="M169.046 54.332c-8.929-20.976-25.648-37.668-46.64-46.568-21.79-9.203-46.378-9.203-68.168 0C21.81 21.464.738 53.25.738 88.454c-.04 11.71 2.307 23.31 6.899 34.084 8.873 21.008 25.592 37.727 46.601 46.602 21.79 9.208 46.379 9.208 68.169 0 21.417-9.032 38.365-26.205 47.114-47.738 8.746-21.534 8.577-45.664-.475-67.07zm-34.559 53.317H106.57v27.917H70.623V107.65H40.88V69.731h29.926V41.815h35.764V69.73h27.953l-.036 37.918z"/>
</svg>
