<svg xmlns="http://www.w3.org/2000/svg" width="180" height="180" viewBox="0 0 180 180">
    <g fill="#FFF" fill-rule="evenodd">
        <path d="M132.386 132.08c-1.905 3.71-5.67 6.014-9.823 6.014H55.747c-4.152 0-7.918-2.304-9.822-6.014-1.924-3.74-1.598-8.188.848-11.603l31.262-43.646V41.725h-7.413V34.31h37.103v7.414H100.274V76.83l31.262 43.646c2.446 3.415 2.772 7.862.85 11.603M0 89.156c0 49.239 39.916 89.155 89.156 89.155 49.239 0 89.155-39.916 89.155-89.155C178.311 39.916 138.395 0 89.156 0 39.916 0 0 39.916 0 89.156z" transform="translate(1 .844)"/>
        <path d="M93.624 81.86c-.45-.629-.694-1.384-.694-2.16V43.406h-7.412V79.7c0 .776-.243 1.531-.695 2.16l-15.507 23.256h39.68L93.623 81.86z" transform="translate(1 .844)"/>
    </g>
</svg>
