<svg xmlns="http://www.w3.org/2000/svg" width="182" height="182" viewBox="0 0 182 182">
    <path fill="#FFF" fill-rule="evenodd" d="M109.96 72.488c-1.932 3.411-4.754 6.233-8.165 8.166-10.405 5.896-23.623 2.241-29.521-8.166-3.648-6.153-3.702-13.793-.146-19.998l.146-.216L91.117 25.85l18.987 26.64c3.559 6.205 3.504 13.845-.143 19.998M91.117.75c-49.705 0-90 40.295-90 90 0 16.302 4.357 31.576 11.935 44.764l11.645-11.646 18.364-18.107c8.882-9.471 16.787-7.604 38.073-7.656h22.618c4.69 0 8.49 3.8 8.49 8.49 0 4.691-3.8 8.491-8.49 8.491H86.224c-1.545 0-2.8 1.255-2.8 2.802 0 1.544 1.255 2.798 2.8 2.798h19.873c2.855.02 5.564-1.2 7.473-3.345l21.382-24.436c3.29-3.6 8.854-3.855 12.454-.582 3.491 3.2 3.837 8.602.764 12.22l-26.71 31.034c-3.981 4.6-9.763 7.237-15.836 7.237H63.952l-7.273 7.272-15.25 15.699c14.24 9.449 31.317 14.965 49.688 14.965 49.706 0 90-40.295 90-90s-40.294-90-90-90"/>
</svg>
