<svg xmlns="http://www.w3.org/2000/svg" width="180" height="180" viewBox="0 0 180 180">
    <path fill="#FEFEFE" fill-rule="evenodd" d="M154.573 98.33c-2.35 0-4.237-1.914-4.237-4.235V71.36h-1.21v66.407c0 2.833-2.324 5.157-5.159 5.157-2.832 0-5.13-2.324-5.13-5.157v-37.234h-1.43v37.234c0 2.833-2.3 5.157-5.156 5.157-2.833 0-5.133-2.324-5.133-5.157V71.36h-1.21v22.735c0 2.321-1.888 4.236-4.237 4.236-2.35 0-4.26-1.915-4.26-4.236V68.747c0-5.689 4.647-10.338 10.336-10.338h20.726c5.712 0 10.336 4.65 10.336 10.338v25.348c0 2.321-1.889 4.236-4.236 4.236zm-43.85-4.235c0 2.321-1.888 4.236-4.236 4.236-2.349 0-4.236-1.915-4.236-4.236V71.36h-1.211v66.407c0 2.833-2.324 5.157-5.156 5.157-2.833 0-5.133-2.324-5.133-5.157v-37.234h-1.43v37.234c0 2.833-2.297 5.157-5.156 5.157-2.832 0-5.132-2.324-5.132-5.157V71.36h-1.211v22.735c0 2.321-1.887 4.236-4.237 4.236-2.347 0-4.26-1.915-4.26-4.236V68.747c0-5.689 4.648-10.338 10.339-10.338h20.723c5.713 0 10.337 4.65 10.337 10.338v25.348zm-48.143 0c0 2.321-1.89 4.236-4.236 4.236-2.35 0-4.237-1.915-4.237-4.236V71.36h-1.21v66.407c0 2.833-2.324 5.157-5.159 5.157-2.83 0-5.13-2.324-5.13-5.157v-37.234h-1.43v37.234c0 2.833-2.3 5.157-5.156 5.157-2.833 0-5.133-2.324-5.133-5.157V71.36h-1.21v22.735c0 2.321-1.888 4.236-4.237 4.236-2.347 0-4.26-1.915-4.26-4.236V68.747c0-5.689 4.647-10.338 10.336-10.338h20.724c5.714 0 10.338 4.65 10.338 10.338v25.348zM41.887 38.04c4.75 0 8.598 3.85 8.598 8.596 0 4.75-3.849 8.599-8.598 8.599-4.747 0-8.598-3.85-8.598-8.599 0-4.747 3.851-8.596 8.598-8.596zm48.144 0c4.749 0 8.598 3.85 8.598 8.596 0 4.75-3.849 8.599-8.598 8.599-4.747 0-8.598-3.85-8.598-8.599 0-4.747 3.85-8.596 8.598-8.596zm48.085 0c4.75 0 8.599 3.85 8.599 8.596 0 4.75-3.85 8.599-8.599 8.599-4.749 0-8.598-3.85-8.598-8.599 0-4.747 3.85-8.596 8.598-8.596zM90 0C40.295 0 0 40.295 0 90s40.295 90 90 90c49.707 0 90-40.295 90-90S139.707 0 90 0z"/>
</svg>
