<svg xmlns="http://www.w3.org/2000/svg" width="179" height="179" viewBox="0 0 179 179">
    <path fill="#FFF" fill-rule="evenodd" d="M141.657 69.278h-.985c-.636 0-1.275.241-1.752.667-3.722 3.269-6.966 7.044-9.625 11.244-1.702 2.393-3.03 5.051-3.934 7.844-.532 5.502-.559 11.057-.08 16.56-.027.532-.452.932-.958.903h-.398c-6.353-.026-11.511-5.157-11.511-11.537V71.937c0-1.489-1.195-2.659-2.659-2.659h-24.35c-1.357 0-2.579-.663-3.349-1.674 0-.025-.027-.025-.027-.053-.532-.692-.823-1.57-.823-2.498 0-2.314 1.886-4.202 4.198-4.202h8.4v-1.142h-8.4c-2.312 0-4.198-1.886-4.198-4.229 0-2.312 1.886-4.198 4.198-4.198h8.4v-1.224h-8.4c-2.312 0-4.198-1.887-4.198-4.227 0-2.312 1.886-4.2 4.198-4.2h8.4v-1.17h-8.4c-2.312 0-4.198-1.887-4.198-4.2 0-.957.316-1.836.875-2.527.745-1.008 1.967-1.674 3.323-1.674h56.253v37.218zm-48.161 48.267c2.312 0 4.2 1.886 4.2 4.225 0 2.314-1.888 4.2-4.2 4.2h-8.4v1.222h8.4c2.312 0 4.2 1.889 4.2 4.23 0 2.31-1.888 4.2-4.2 4.2h-8.4v1.17h8.4c2.312 0 4.2 1.888 4.2 4.198 0 .96-.318 1.835-.877 2.526-.745 1.01-1.967 1.674-3.323 1.674H37.243v-37.218h.983c.638 0 1.277-.24 1.754-.664 3.722-3.27 6.966-7.043 9.625-11.245 1.702-2.394 3.03-5.051 3.934-7.84.532-5.506.559-11.062.08-16.565.027-.53.452-.93.958-.904h.396c6.355.028 11.513 5.158 11.513 11.54v23.02c0 1.49 1.195 2.658 2.658 2.658h24.352c1.356 0 2.578.665 3.348 1.676 0 .027.027.027.027.054.532.691.825 1.568.825 2.499 0 2.31-1.888 4.199-4.2 4.199h-8.4v1.145h8.4zm56.134-85.498h7.826C141.233 12.752 116.918.498 89.744.498 40.916.498 1.308 40.087 1.308 88.934c0 6.537.714 12.916 2.074 19.044h25.886v37.214h-7.754c16.222 19.653 40.77 32.179 68.23 32.179 48.845 0 88.436-39.61 88.436-88.437 0-6.755-.75-13.33-2.197-19.652H149.63V32.047z"/>
</svg>
